Coordinates
version=1
nRows=6
nColumns=63
inDegrees=yes

Units are S.I. units (second, meters, Newtons, ...)
If the header above contains a line with 'inDegrees', this indicates whether rotational values are in degrees (yes) or radians (no).

endheader
time	pelvis_tilt	pelvis_list	pelvis_rotation	pelvis_tx	pelvis_ty	pelvis_tz	hip_flexion_r	hip_adduction_r	hip_rotation_r	knee_angle_r	knee_angle_r_beta	ankle_angle_r	subtalar_angle_r	mtp_angle_r	hip_flexion_l	hip_adduction_l	hip_rotation_l	knee_angle_l	knee_angle_l_beta	ankle_angle_l	subtalar_angle_l	mtp_angle_l	L5_S1_Flex_Ext	L5_S1_Lat_Bending	L5_S1_axial_rotation	L4_L5_Flex_Ext	L4_L5_Lat_Bending	L4_L5_axial_rotation	L3_L4_Flex_Ext	L3_L4_Lat_Bending	L3_L4_axial_rotation	L2_L3_Flex_Ext	L2_L3_Lat_Bending	L2_L3_axial_rotation	L1_L2_Flex_Ext	L1_L2_Lat_Bending	L1_L2_axial_rotation	L1_T12_Flex_Ext	L1_T12_Lat_Bending	L1_T12_axial_rotation	Abs_r3	Abs_r2	Abs_r1	Abs_t1	Abs_t2	neck_flexion	neck_bending	neck_rotation	arm_flex_r	arm_add_r	arm_rot_r	elbow_flex_r	pro_sup_r	wrist_flex_r	wrist_dev_r	arm_flex_l	arm_add_l	arm_rot_l	elbow_flex_l	pro_sup_l	wrist_flex_l	wrist_dev_l
0.000000	2.098532	-3.932083	94.465798	0.181869	0.493395	0.995821	7.382582	5.264002	-1.107771	19.027247	0.332088	47.854837	3.870537	0.000000	1.836590	1.042573	12.917507	10.987390	0.191766	43.801316	-15.715573	0.000000	0.280802	0.717611	0.241478	0.521478	0.954423	0.256571	0.461330	1.744800	0.256571	0.320929	1.744800	0.211293	0.260753	1.463353	0.196201	0.160450	1.111580	0.181109	2.005742	8.117760	1.343029	0.000000	0.000000	25.971970	-3.042375	3.181297	19.767388	-6.912778	71.019549	39.595875	70.989654	14.390776	10.290337	23.741105	-0.908228	74.866226	39.303232	60.310765	3.710510	19.882893
0.016949	1.759056	-4.047471	94.518530	0.182156	0.493412	0.995784	7.516610	4.873748	-1.485165	19.046281	0.332420	48.216535	4.045412	0.000000	2.315324	1.323084	11.850480	11.645226	0.203248	44.157193	-14.666053	0.000000	0.289786	0.677685	0.236454	0.538161	0.901321	0.251233	0.476089	1.647723	0.251233	0.331196	1.647723	0.206898	0.269095	1.381935	0.192119	0.165584	1.049734	0.177341	2.069910	7.666109	1.315088	0.000000	0.000000	26.372371	-2.686263	3.623978	19.411240	-6.998901	71.375875	39.911436	71.182168	13.402161	9.360473	23.449878	-1.391748	76.321894	40.041575	59.366733	1.712869	18.106392
0.033898	1.482591	-4.133775	94.555137	0.182469	0.493469	0.995711	7.644815	4.561209	-1.784501	19.102515	0.333402	48.531740	4.227918	0.000000	2.725409	1.536533	10.899630	12.225577	0.213377	44.473970	-13.702905	0.000000	0.296233	0.643963	0.231876	0.550135	0.856470	0.246368	0.486681	1.565731	0.246368	0.338565	1.565731	0.202891	0.275082	1.313169	0.188399	0.169268	0.997498	0.173907	2.115964	7.284635	1.289624	0.000000	0.000000	26.650184	-2.413310	3.941249	19.117437	-7.093582	71.707442	40.215500	71.334758	12.540143	8.524753	23.200228	-1.786276	77.590843	40.634936	59.356871	0.064148	16.511751
0.050847	1.263255	-4.194384	94.576926	0.182804	0.493561	0.995610	7.767061	4.318945	-2.013181	19.190330	0.334934	48.803232	4.415895	0.000000	3.073241	1.689821	10.058021	12.734195	0.222254	44.754572	-12.822261	0.000000	0.300397	0.615891	0.227821	0.557867	0.819135	0.242060	0.493522	1.497477	0.242060	0.343323	1.497477	0.199343	0.278948	1.255925	0.185104	0.171647	0.954015	0.170866	2.145703	6.967081	1.267071	0.000000	0.000000	26.819170	-2.215300	4.145847	18.879562	-7.194622	72.011408	40.506447	71.440500	11.790103	7.780000	22.990098	-2.099391	78.686155	41.095346	60.159201	-1.261188	15.089623
0.067797	1.095166	-4.232682	94.585200	0.183158	0.493681	0.995490	7.883211	4.139516	-2.178610	19.304108	0.336920	49.033794	4.607184	0.000000	3.365215	1.789850	9.318714	13.176829	0.229979	45.001922	-12.020252	0.000000	0.302528	0.592916	0.224367	0.561825	0.788579	0.238390	0.497024	1.441617	0.238390	0.345760	1.441617	0.196321	0.280928	1.209075	0.182298	0.172865	0.918428	0.168275	2.160929	6.707189	1.247862	0.000000	0.000000	26.893091	-2.084017	4.250508	18.691199	-7.299821	72.284931	40.782656	71.492467	11.137421	7.123041	22.817435	-2.338675	79.620909	41.434841	61.651749	-2.288677	13.830659
0.084746	0.972442	-4.252057	94.581266	0.183526	0.493825	0.995358	7.993128	4.015485	-2.288190	19.438230	0.339261	49.226207	4.799626	0.000000	3.607725	1.843520	8.674774	13.559233	0.236653	45.218945	-11.293009	0.000000	0.302880	0.574486	0.221593	0.562478	0.764067	0.235442	0.497601	1.396806	0.235442	0.346161	1.396806	0.193894	0.281254	1.171492	0.180044	0.173066	0.889879	0.166195	2.163441	6.498703	1.232432	0.000000	0.000000	26.885708	-2.011245	4.267968	18.545931	-7.406982	72.525170	41.042505	71.483734	10.567478	6.550698	22.680182	-2.511708	80.408185	41.665452	63.712537	-3.043854	12.725514
